<svg xmlns="http://www.w3.org/2000/svg" viewBox="0 0 100 100" width="100" height="100">
  <circle cx="50" cy="50" r="50" fill="#4DA2FF"/>
  <path d="M50 18C32.3 18 18 32.3 18 50s14.3 32 32 32 32-14.3 32-32S67.7 18 50 18zm0 56.5c-5.5 0-10.5-2.1-14.3-5.5l28.7-28.7c3.4 3.8 5.5 8.8 5.5 14.3-.1 11-9 20-19.9 19.9zm14.3-22.5L35.7 80.8C32.3 77 30.2 72 30.2 66.5c0-11 8.9-19.9 19.9-19.9 5.5 0 10.5 2.1 14.3 5.5L35.7 80.8z" fill="white"/>
  <path d="M50 23.5c-5.5 0-10.5 2.1-14.3 5.5L63.4 57c3.4-3.8 5.5-8.8 5.5-14.3-.1-10.7-8.9-19.4-18.9-19.2zm-14.3 8.3C39.5 28.4 44.5 26.5 50 26.5c5.5 0 10.5 2.1 14.3 5.5L35.7 80.8C32.3 77 30.2 72 30.2 66.5c0-5.5 2.1-10.5 5.5-14.3v-20.4z" fill="rgba(255,255,255,0.3)"/>
</svg>
